<svg width="610" height="610" viewBox="0 0 610 610" fill="none" xmlns="http://www.w3.org/2000/svg">
<rect width="609.148" height="609.148" rx="136.763" fill="#FBE56A"/>
<path d="M205.265 135.392C203.127 91.0515 260.886 72.2495 285.259 109.352V109.352C300.906 133.171 334.824 135.822 353.982 114.722V114.722C383.823 81.8571 437.959 109.404 428.959 152.873V152.873C423.18 180.781 445.289 206.638 473.755 205.265V205.265C518.096 203.127 536.897 260.886 499.795 285.259V285.259C475.976 300.906 473.325 334.824 494.425 353.982V353.982C527.29 383.823 499.743 437.959 456.274 428.959V428.959C428.366 423.18 402.509 445.289 403.882 473.755V473.755C406.02 518.096 348.261 536.897 323.888 499.795V499.795C308.241 475.976 274.323 473.325 255.165 494.425V494.425C225.324 527.29 171.188 499.743 180.188 456.274V456.274C185.967 428.366 163.858 402.509 135.392 403.882V403.882C91.0515 406.02 72.2495 348.261 109.352 323.888V323.888C133.171 308.241 135.822 274.323 114.722 255.165V255.165C81.8571 225.324 109.404 171.188 152.873 180.188V180.188C180.781 185.967 206.638 163.858 205.265 135.392V135.392Z" fill="#333230"/>
<path d="M265.162 297.153C265.162 285.963 268.405 277.449 274.892 271.61C281.542 265.61 291.435 262.609 304.571 262.609C317.707 262.609 327.519 265.691 334.006 271.854C340.656 278.016 343.98 286.45 343.98 297.153C343.98 306.722 340.899 315.074 334.736 322.21H337.412C345.034 322.21 351.927 321.237 358.09 319.291C364.253 317.344 369.28 314.425 373.172 310.533C374.632 309.073 376.173 308.019 377.794 307.371C379.416 306.56 381.362 306.154 383.633 306.154C387.849 306.154 390.931 307.371 392.877 309.803C394.985 312.236 396.039 315.236 396.039 318.804C396.039 323.994 394.174 328.291 390.444 331.697C386.876 335.265 382.335 338.103 376.821 340.212C371.469 342.482 365.55 344.104 359.063 345.077C352.738 346.05 346.899 346.537 341.548 346.537C328.411 346.537 316.086 344.671 304.571 340.941C292.894 344.671 280.569 346.537 267.594 346.537C262.242 346.537 256.323 346.05 249.836 345.077C243.511 344.104 237.591 342.482 232.077 340.212C226.725 338.103 222.185 335.265 218.454 331.697C214.886 328.291 213.103 323.994 213.103 318.804C213.103 315.236 214.076 312.236 216.022 309.803C218.13 307.371 221.293 306.154 225.509 306.154C227.78 306.154 229.726 306.56 231.348 307.371C232.969 308.019 234.51 309.073 235.97 310.533C239.862 314.425 244.889 317.426 251.052 319.534C257.215 321.48 264.108 322.372 271.73 322.21H274.406C271.487 318.804 269.216 314.993 267.594 310.776C265.973 306.56 265.162 302.019 265.162 297.153ZM295.57 298.126C295.57 301.694 296.381 304.857 298.003 307.614C299.625 310.209 301.814 312.398 304.571 314.182C307.328 312.398 309.517 310.209 311.139 307.614C312.761 304.857 313.572 301.694 313.572 298.126C313.572 294.234 312.761 291.477 311.139 289.855C309.517 288.234 307.328 287.423 304.571 287.423C301.814 287.423 299.625 288.234 298.003 289.855C296.381 291.477 295.57 294.234 295.57 298.126Z" fill="#FBE56A"/>
</svg>
