<svg width="1320" height="1320" viewBox="0 0 1320 1320" fill="none" xmlns="http://www.w3.org/2000/svg">
<path d="M620.667 1.46665C539.867 6.26665 457.467 26.9333 383.2 61.0667C276.533 110.133 181.6 190.667 114.8 288.667C86.9333 329.467 64.2667 372 46.9334 416C-19.6 584.8 -14.5333 772.267 61.0667 936.8C110.133 1043.47 190.667 1138.4 288.667 1205.2C319.733 1226.4 351.067 1244.13 383.2 1258.93C559.067 1339.73 760.933 1339.73 936.8 1258.93C1040.93 1211.07 1134 1133.2 1200.67 1038C1222.53 1006.8 1243.6 970.133 1258.93 936.8C1339.73 760.933 1339.73 559.067 1258.93 383.2C1215.6 288.8 1147.2 203.067 1063.33 138C938.267 40.8 780 -7.86668 620.667 1.46665ZM799.6 268.267L878.667 347.333V268.933V190.667H904H929.333V270.933V351.333L988 292.667L1046.67 234L1064.27 251.733L1082 269.333L1020.67 330.667L959.333 392H1042.4H1125.33V416.667V441.333H1049.07H972.667L1050 518.667L1127.33 596L1109.6 613.6L1092 631.333L1010.67 550L929.333 468.667L929.067 624.667L928.667 780.667L903.733 781.067L878.667 781.333V627.067V472.667L732 619.333L585.333 766L567.733 748.267L550 730.667L694.667 586L839.333 441.333H686.933H534.667V416.667V392H693.6H852.667L768.667 308L684.667 224L702 206.667C711.467 197.2 719.6 189.333 720 189.333C720.4 189.333 756.267 224.933 799.6 268.267Z" fill="#A055FE"/>
</svg>
