<svg width="689" height="689" viewBox="0 0 689 689" fill="none" xmlns="http://www.w3.org/2000/svg">
<g clip-path="url(#clip0_1_18932)">
<path d="M728.59 -23.4863H-38.7061V712.491H728.59V-23.4863Z" fill="#23C38A"/>
<path d="M94.3979 469.771C164.075 409.641 252.91 376.328 344.943 375.816C436.969 376.369 525.791 409.677 595.489 469.771L376.262 688.998H0.443359V563.725L94.3979 469.771Z" fill="#121212"/>
<path d="M449.386 229.101C400.53 211.72 376.258 187.918 376.258 156.6H313.622C313.622 187.918 289.037 211.72 240.181 229.101C193.056 244.049 143.828 251.294 94.3945 250.554V469.781C151.954 469.171 209.125 460.258 264.139 443.318C329.281 422.804 344.94 407.145 344.94 407.145C344.94 407.145 360.599 422.804 425.741 443.318C480.755 460.258 537.926 469.171 595.486 469.781V250.554C545.948 251.327 496.611 244.083 449.386 229.101Z" fill="white"/>
<path d="M449.386 213.438C400.53 196.056 376.258 156.596 376.258 125.277H313.622C313.622 156.596 289.35 196.056 240.494 213.438C193.269 228.42 143.932 235.664 94.3945 234.891V297.527C152.044 298.065 209.39 289.125 264.139 271.063C294.885 260.609 322.619 242.818 344.94 219.232C367.262 242.818 394.996 260.609 425.741 271.063C480.49 289.125 537.836 298.065 595.486 297.527V234.891C545.948 235.664 496.611 228.42 449.386 213.438Z" fill="#121212"/>
</g>
<defs>
<clipPath id="clip0_1_18932">
<rect width="689" height="689" rx="100" fill="white"/>
</clipPath>
</defs>
</svg>
